<svg width="398" height="144" viewBox="0 0 398 144" fill="none" xmlns="http://www.w3.org/2000/svg">
<path d="M141.827 25.8318C140.601 25.8318 139.607 26.8257 139.607 28.0517V39.4462C139.607 40.6722 140.601 41.666 141.827 41.666H174.388C180.221 41.666 184.95 46.3945 184.95 52.2273V52.2273C184.95 58.0601 180.221 62.7885 174.388 62.7885H141.827C140.601 62.7885 139.607 63.7823 139.607 65.0083V76.2802C139.607 77.5062 140.601 78.5001 141.827 78.5001H177.225C183.439 78.5001 188.476 83.5373 188.476 89.7511V89.7511C188.476 95.9648 183.439 101.002 177.225 101.002H130.761C123.405 101.002 117.442 95.039 117.442 87.6831V16.6488C117.442 9.29294 123.405 3.32983 130.761 3.32983L177.225 3.32983C183.439 3.32983 188.476 8.36708 188.476 14.5808V14.5808C188.476 20.7946 183.439 25.8318 177.225 25.8318H141.827Z" fill="#F9FDFE"/>
<path d="M13.0015 131.078C13.0015 131.078 111.633 113.887 175.484 109.047C257.176 102.855 385.271 109.047 385.271 109.047" stroke="url(#paint0_linear_363_9)" stroke-width="24.6809" stroke-linecap="round"/>
<path d="M247.507 102.112C238.347 102.112 229.92 99.9592 222.225 95.6539C214.622 91.3486 208.576 85.3945 204.088 77.7915C199.599 70.1885 197.355 61.6238 197.355 52.0971C197.355 42.5705 199.599 34.0057 204.088 26.4028C208.576 18.7998 214.622 12.8915 222.225 8.67776C229.92 4.37247 238.347 2.21982 247.507 2.21982C256.668 2.21982 265.049 4.37247 272.652 8.67776C280.255 12.8915 286.255 18.7998 290.652 26.4028C295.14 34.0057 297.385 42.5705 297.385 52.0971C297.385 61.6238 295.14 70.1885 290.652 77.7915C286.255 85.3945 280.209 91.3486 272.515 95.6539C264.912 99.9592 256.576 102.112 247.507 102.112ZM247.507 73.6694C253.553 73.6694 258.225 71.7458 261.522 67.8985C264.82 63.9596 266.469 58.6925 266.469 52.0971C266.469 45.4102 264.82 40.1431 261.522 36.2958C258.225 32.3569 253.553 30.3874 247.507 30.3874C241.37 30.3874 236.653 32.3569 233.355 36.2958C230.057 40.1431 228.408 45.4102 228.408 52.0971C228.408 58.6925 230.057 63.9596 233.355 67.8985C236.653 71.7458 241.37 73.6694 247.507 73.6694Z" fill="#F9FDFE"/>
<path d="M12 50.7589C12 40.8891 13.974 32.1003 17.9219 24.3925C21.9638 16.6846 27.6977 10.7158 35.1235 6.48586C42.5493 2.16195 51.2911 0 61.3489 0C69.9967 0 77.7046 1.64497 84.4724 4.9349C91.3343 8.13082 96.8802 12.6897 101.11 18.6116V18.6116C108.069 28.1422 98.8742 39.3381 87.0735 39.3381H85.4254C80.1204 39.3381 75.6328 35.76 71.4127 32.5454C71.0328 32.256 70.6391 31.9823 70.2317 31.7243C67.5058 29.8443 64.3569 28.9044 60.7849 28.9044C55.5211 28.9044 51.3381 30.8783 48.2362 34.8262C45.2283 38.7742 43.7243 44.085 43.7243 50.7589C43.7243 57.4328 45.2283 62.7436 48.2362 66.6915C51.3381 70.6395 55.5211 72.6134 60.7849 72.6134C64.3569 72.6134 67.5058 71.7204 70.2317 69.9345C70.6603 69.6488 71.0736 69.3469 71.4717 69.0286C75.6156 65.7163 80.1204 62.1796 85.4254 62.1796H87.0735C98.8742 62.1796 108.069 73.3756 101.11 82.9062V82.9062C96.8802 88.8281 91.3343 93.434 84.4724 96.7239C77.7046 99.9198 69.9967 101.518 61.3489 101.518C51.2911 101.518 42.5493 99.4028 35.1235 95.1729C27.6977 90.849 21.9638 84.8332 17.9219 77.1253C13.974 69.4175 12 60.6287 12 50.7589Z" fill="#F9FDFE"/>
<path d="M335.47 64.8924C335.47 69.7862 339.437 73.7533 344.331 73.7533H358.1C365.585 73.7533 371.652 79.8205 371.652 87.3047V87.3047C371.652 94.7889 365.585 100.856 358.1 100.856H333.238C317.183 100.856 304.168 87.8411 304.168 71.7863V16.6809C304.168 8.03726 311.176 1.03023 319.819 1.03023V1.03023C328.463 1.03023 335.47 8.03727 335.47 16.6809V64.8924Z" fill="#F9FDFE"/>
<defs>
<linearGradient id="paint0_linear_363_9" x1="385.271" y1="106.397" x2="73.0023" y2="258.491" gradientUnits="userSpaceOnUse">
<stop stop-color="#909BF9"/>
<stop offset="1" stop-color="#F9AADD"/>
</linearGradient>
</defs>
</svg>
